<?xml version="1.0" encoding="UTF-8" standalone="no"?>
<!-- Created with Inkscape (http://www.inkscape.org/) -->

<svg
   xmlns:dc="http://purl.org/dc/elements/1.1/"
   xmlns:cc="http://creativecommons.org/ns#"
   xmlns:rdf="http://www.w3.org/1999/02/22-rdf-syntax-ns#"
   xmlns:svg="http://www.w3.org/2000/svg"
   xmlns="http://www.w3.org/2000/svg"
   xmlns:sodipodi="http://sodipodi.sourceforge.net/DTD/sodipodi-0.dtd"
   xmlns:inkscape="http://www.inkscape.org/namespaces/inkscape"
   width="193.82635mm"
   height="153.136mm"
   viewBox="0 0 193.82635 153.136"
   version="1.1"
   id="svg4563"
   inkscape:version="0.92.1 r15371"
   sodipodi:docname="happy egg - simple.svg">
  <defs
     id="defs4557" />
  <sodipodi:namedview
     id="base"
     pagecolor="#ffffff"
     bordercolor="#666666"
     borderopacity="1.0"
     inkscape:pageopacity="0.0"
     inkscape:pageshadow="2"
     inkscape:zoom="0.7"
     inkscape:cx="5.9547332"
     inkscape:cy="309.33715"
     inkscape:document-units="mm"
     inkscape:current-layer="layer1"
     showgrid="false"
     inkscape:window-width="1600"
     inkscape:window-height="877"
     inkscape:window-x="-8"
     inkscape:window-y="-8"
     inkscape:window-maximized="1"
     fit-margin-top="0"
     fit-margin-left="0"
     fit-margin-right="0"
     fit-margin-bottom="0" />
  <metadata
     id="metadata4560">
    <rdf:RDF>
      <cc:Work
         rdf:about="">
        <dc:format>image/svg+xml</dc:format>
        <dc:type
           rdf:resource="http://purl.org/dc/dcmitype/StillImage" />
        <dc:title></dc:title>
      </cc:Work>
    </rdf:RDF>
  </metadata>
  <g
     inkscape:label="Layer 1"
     inkscape:groupmode="layer"
     id="layer1"
     transform="translate(-13.455834,-17.080806)">
    <g
       transform="matrix(0.28222223,0,0,0.28222223,1129.9589,45.62995)"
       style="display:inline"
       id="g4417"
       inkscape:export-xdpi="150"
       inkscape:export-ydpi="150">
      <path
         sodipodi:nodetypes="cscsccsssc"
         inkscape:connector-curvature="0"
         id="path4546-9"
         d="m -3369.297,-22.976289 c 162.9592,-19.062492 97.1232,109.965967 5.4186,194.795539 -41.0999,38.01875 -5.8928,149.99508 -72.352,197.73944 -41.756,42.86973 -125.8764,74.74039 -189.6404,71.15061 -72.0681,-4.05724 -143.2772,-37.50216 -182.0352,-64.97186 -34.8381,-29.66725 -41.0525,-32.7797 -63.6636,-111.70856 -105.6327,12.54873 -106.5744,-97.11885 -31.5934,-144.88481 36.8748,-23.490717 53.1221,-35.395417 97.524,-114.6027721 56.6431,-101.0441689 279.685,-147.0417879 358.4759,-57.2140369 15.7947,18.00712 34.4986,40.768439 77.8661,29.69645 z"
         style="display:inline;fill:#ffffff;fill-opacity:1;fill-rule:evenodd;stroke:none;stroke-width:0.92746091px;stroke-linecap:butt;stroke-linejoin:miter;stroke-opacity:0.39215686" />
      <path
         style="display:inline;fill:#ebebeb;fill-opacity:0.09803922;fill-rule:evenodd;stroke:#000000;stroke-width:0.92746091px;stroke-linecap:butt;stroke-linejoin:miter;stroke-opacity:0.39215686"
         d="m -3369.297,-22.976289 c 162.9592,-19.062492 97.1232,109.965967 5.4186,194.795539 -41.0999,38.01875 -5.8928,149.99508 -72.352,197.73944 -41.756,42.86973 -125.8764,74.74039 -189.6404,71.15061 -72.0681,-4.05724 -143.2772,-37.50216 -182.0352,-64.97186 -34.8381,-29.66725 -41.0525,-32.7797 -63.6636,-111.70856 -105.6327,12.54873 -106.5744,-97.11885 -31.5934,-144.88481 36.8748,-23.490717 53.1221,-35.395417 97.524,-114.6027721 56.6431,-101.0441689 279.685,-147.0417879 358.4759,-57.2140369 15.7947,18.00712 34.4986,40.768439 77.8661,29.69645 z"
         id="path4188-1-8-2-2-7"
         inkscape:connector-curvature="0"
         sodipodi:nodetypes="cscsccsssc" />
      <ellipse
         ry="165.87537"
         rx="192.87782"
         style="display:inline;opacity:1;fill:#fff600;fill-opacity:1;stroke:none;stroke-width:4;stroke-miterlimit:4;stroke-dasharray:24, 24;stroke-dashoffset:0;stroke-opacity:1"
         id="path3336-7-20-5-93-5-5"
         transform="scale(-1)"
         cx="3605.8267"
         cy="-135.97275" />
      <path
         style="display:inline;opacity:1;fill:#ffcc00;fill-opacity:1;stroke:none;stroke-width:4;stroke-miterlimit:4;stroke-dasharray:24, 24;stroke-dashoffset:0;stroke-opacity:1"
         id="path4163-4-0-7-5-1"
         sodipodi:type="arc"
         sodipodi:cx="-3680.2642"
         sodipodi:cy="97.23056"
         sodipodi:rx="22.145231"
         sodipodi:ry="36.861191"
         sodipodi:start="0"
         sodipodi:end="5.7516873"
         d="m -3658.1189,97.23056 a 22.145231,36.861191 0 0 1 -19.2114,36.53627 22.145231,36.861191 0 0 1 -24.3017,-26.85534 22.145231,36.861191 0 0 1 12.7722,-43.652061 22.145231,36.861191 0 0 1 27.6859,15.288949 l -19.0903,18.682182 z" />
      <path
         style="display:inline;opacity:1;fill:#ffcc00;fill-opacity:1;stroke:none;stroke-width:4;stroke-miterlimit:4;stroke-dasharray:24, 24;stroke-dashoffset:0;stroke-opacity:1"
         id="path4163-0-2-7-9-8-9"
         sodipodi:type="arc"
         sodipodi:cx="-3545.2495"
         sodipodi:cy="97.23056"
         sodipodi:rx="22.145231"
         sodipodi:ry="36.861191"
         sodipodi:start="0"
         sodipodi:end="5.7516873"
         d="m -3523.1043,97.23056 a 22.145231,36.861191 0 0 1 -19.2113,36.53627 22.145231,36.861191 0 0 1 -24.3018,-26.85534 22.145231,36.861191 0 0 1 12.7722,-43.652061 22.145231,36.861191 0 0 1 27.686,15.288949 l -19.0903,18.682182 z" />
      <path
         style="display:inline;opacity:1;fill:#ffcc00;fill-opacity:1;stroke:none;stroke-width:4;stroke-miterlimit:4;stroke-dasharray:24, 24;stroke-dashoffset:0;stroke-opacity:1"
         id="path4213-1-6-9-0"
         sodipodi:type="arc"
         sodipodi:cx="-3612.7571"
         sodipodi:cy="142.69225"
         sodipodi:rx="93.56324"
         sodipodi:ry="80.4646"
         sodipodi:start="0"
         sodipodi:end="3.1415927"
         d="m -3519.1938,142.69225 a 93.56324,80.4646 0 0 1 -46.7817,69.68438 93.56324,80.4646 0 0 1 -93.5632,0 93.56324,80.4646 0 0 1 -46.7816,-69.68439 l 93.5632,1e-5 z" />
      <path
         sodipodi:nodetypes="cc"
         inkscape:connector-curvature="0"
         id="path4436-5-6"
         d="m -3593.0295,-6.541141 c 32.5522,1.2350221 74.318,17.77067 100.8635,42.183092"
         style="display:inline;fill:none;fill-rule:evenodd;stroke:#ffffff;stroke-width:23.18652344;stroke-linecap:round;stroke-linejoin:round;stroke-miterlimit:4;stroke-dasharray:none;stroke-opacity:0.49019608" />
      <path
         sodipodi:nodetypes="cc"
         inkscape:connector-curvature="0"
         id="path4436-4-8-6"
         d="m -3471.4543,58.141699 c 13.1104,12.481151 24.3752,39.608917 26.7435,49.114541"
         style="display:inline;fill:none;fill-rule:evenodd;stroke:#ffffff;stroke-width:23.18652344;stroke-linecap:round;stroke-linejoin:round;stroke-miterlimit:4;stroke-dasharray:none;stroke-opacity:0.49019608" />
      <path
         sodipodi:nodetypes="cc"
         inkscape:connector-curvature="0"
         id="path4436-5-2-18"
         d="m -3414.6462,302.59766 c -13.5748,29.6124 -44.8092,61.89573 -77.5101,77.10428"
         style="display:inline;fill:none;fill-rule:evenodd;stroke:#7d7d7d;stroke-width:23.18652344;stroke-linecap:round;stroke-linejoin:round;stroke-miterlimit:4;stroke-dasharray:none;stroke-opacity:0.03921569" />
      <path
         sodipodi:nodetypes="cc"
         inkscape:connector-curvature="0"
         id="path4436-5-2-1-9"
         d="m -3797.8531,27.836887 c 9.0134,-22.7871783 31.186,-48.286752 55.1422,-61.018453"
         style="display:inline;fill:none;fill-rule:evenodd;stroke:#7d7d7d;stroke-width:17.44211388;stroke-linecap:round;stroke-linejoin:round;stroke-miterlimit:4;stroke-dasharray:none;stroke-opacity:0.03921569" />
    </g>
  </g>
</svg>
